<svg width="50" height="62" viewBox="0 0 50 62" fill="none" xmlns="http://www.w3.org/2000/svg">
<g clip-path="url(#clip0_8_16)">
<path d="M48.4091 21.1358C48.0528 21.4148 41.7629 24.9922 41.7629 32.9468C41.7629 42.1476 49.7666 45.4026 50.0061 45.4832C49.9693 45.6816 48.7346 49.941 45.7862 54.281C43.1572 58.1002 40.4115 61.9132 36.2346 61.9132C32.0577 61.9132 30.9828 59.4642 26.1609 59.4642C21.4619 59.4642 19.7912 61.9938 15.9705 61.9938C12.1499 61.9938 9.48403 58.4598 6.41892 54.1198C2.86855 49.0234 0 41.106 0 33.5916C0 21.5388 7.76413 15.1466 15.4054 15.1466C19.4656 15.1466 22.8501 17.8374 25.3993 17.8374C27.8256 17.8374 31.6093 14.9854 36.2285 14.9854C37.9791 14.9854 44.269 15.1466 48.4091 21.1358ZM34.0356 9.8828C35.9459 7.595 37.2973 4.4206 37.2973 1.2462C37.2973 0.806 37.2604 0.3596 37.1806 0C34.0725 0.1178 30.3747 2.0894 28.145 4.6996C26.3943 6.7084 24.7604 9.8828 24.7604 13.1006C24.7604 13.5842 24.8403 14.0678 24.8771 14.2228C25.0737 14.26 25.3931 14.3034 25.7125 14.3034C28.5012 14.3034 32.0086 12.4186 34.0356 9.8828Z" fill="white"/>
</g>
<defs>
<clipPath id="clip0_8_16">
<rect width="50" height="62" fill="white"/>
</clipPath>
</defs>
</svg>
