<svg width="243" height="44" viewBox="0 0 243 44" fill="none" xmlns="http://www.w3.org/2000/svg">
<path d="M19.9954 2.67029e-05V38.4842L28.7179 41.2449V8.97642C28.7179 7.45588 29.3965 6.4463 30.4849 6.79351C31.9081 7.18782 32.1847 8.58851 32.1847 10.0921V22.9797C37.614 25.6049 41.8885 22.9783 41.8885 16.0517C41.8885 8.97368 39.3824 5.82053 32.0084 3.28538C29.0998 2.31789 23.7094 0.685276 19.9954 2.67029e-05Z" fill="white"/>
<path d="M30.377 35.6187L44.3859 30.6376C45.9707 30.0507 46.213 29.2533 44.9304 28.8343C43.6277 28.4075 41.3024 28.5297 39.7007 29.1042L30.377 32.39V27.1473L30.9109 26.9712C30.9109 26.9712 33.6097 26.016 37.4057 25.6048C41.1944 25.1899 45.8407 25.6588 49.4924 27.0338C53.6062 28.3394 54.0673 30.2437 53.0265 31.5689C51.9706 32.8804 49.4105 33.8291 49.4105 33.8291L30.377 40.6597" fill="white"/>
<path d="M4.01379 35.0886C-0.203926 33.9149 -0.90726 31.4346 1.01684 30.0019C2.79166 28.6936 5.81425 27.7087 5.81425 27.7087L18.309 23.2583V28.3235L9.32589 31.5403C7.73469 32.1089 7.49612 32.9089 8.77778 33.3275C10.0823 33.763 12.3975 33.6459 13.9896 33.059L18.309 31.5032V36.025C18.0306 36.0717 17.721 36.1188 17.4385 36.1668C13.132 36.8809 8.5438 36.5877 4.01379 35.0886Z" fill="white"/>
<path d="M81.9063 10.0994L71.3727 10.0949C71.3292 10.0949 71.2944 10.1292 71.2944 10.169V34.7803C71.2944 34.8196 71.3292 34.8567 71.3727 34.8567H75.6417L75.7168 34.7803L75.7219 12.8404L75.7471 12.8038L80.6351 12.7947C82.415 12.7947 83.3926 14.5865 83.3926 17.8334C83.3926 21.0822 82.415 22.8781 80.6351 22.8781L77.6931 22.8749C77.6492 22.8749 77.6194 22.9083 77.6194 22.9504V25.5038C77.6194 25.5537 77.6492 25.5839 77.6931 25.5839H81.9063C83.3926 25.5839 84.8483 24.8959 85.8987 23.7134C87.1433 22.31 87.7985 20.2839 87.7985 17.8558C87.7985 13.1506 85.498 10.0994 81.9063 10.0994Z" fill="white"/>
<path d="M94.7806 10.0949H90.5089C90.4603 10.0949 90.4255 10.1292 90.4255 10.169V34.7803C90.4255 34.8201 90.4603 34.8567 90.5089 34.8567H94.7806L94.8589 34.7803V10.169L94.7806 10.0949Z" fill="white"/>
<path d="M113.411 16.0855C113.411 16.042 113.372 16.0091 113.33 16.0091H105.723C98.9016 16.0091 98.0298 21.0112 98.0298 25.4073L98.0348 29.2091C98.0348 32.4807 100.072 34.8562 102.872 34.8562H107.022L107.097 34.7803V32.2296C107.097 32.1879 107.062 32.1509 107.022 32.1509L104.058 32.1559C103.374 32.1417 102.455 31.8531 102.455 29.5073V25.4027C102.452 22.675 102.706 20.9312 103.273 19.939C103.887 18.8439 104.853 18.697 105.723 18.697H108.965L108.993 18.7355L108.989 34.7803C108.989 34.8191 109.022 34.8562 109.067 34.8562H113.331C113.373 34.8562 113.411 34.8191 113.411 34.7803" fill="white"/>
<path d="M144.139 20.3942L142.035 20.2341C140.458 20.0982 139.285 19.2254 139.285 16.6431C139.285 13.6281 140.638 12.8034 142.445 12.8034H148.267L148.345 12.7283V10.1689L148.267 10.0953H148.146L141.838 10.0967C137.864 10.0967 135.039 12.4283 135.039 17.075V17.2771C135.039 20.9435 137.297 23.5899 140.663 23.8469L142.756 24.002C144.353 24.1228 145.348 25.5495 145.348 27.7146V28.3235C145.348 29.677 145.009 32.1536 142.103 32.1536H136.054C136.013 32.1536 135.978 32.1889 135.978 32.2323V34.7798L136.054 34.8562H143.564C145.879 34.8562 149.754 33.9207 149.754 27.6282C149.754 25.3483 149.235 23.5514 148.185 22.2527C147.289 21.1375 145.962 20.5341 144.139 20.3942Z" fill="white"/>
<path d="M179.123 16.0855C179.123 16.042 179.087 16.0091 179.047 16.0091H171.422C164.616 16.0091 163.735 21.0112 163.735 25.4073L163.74 29.2091C163.74 32.4807 165.775 34.8562 168.59 34.8562H172.729L172.806 34.7803V32.2296C172.806 32.1879 172.77 32.1509 172.729 32.1509L169.763 32.1559C169.082 32.1417 168.171 31.8531 168.168 29.5073V25.4027C168.168 22.675 168.425 20.9312 168.979 19.939C169.593 18.8439 170.566 18.697 171.421 18.697H174.678L174.71 18.7355L174.702 34.7803C174.702 34.8191 174.738 34.8562 174.78 34.8562H179.05C179.092 34.8562 179.123 34.8191 179.123 34.7803" fill="white"/>
<path d="M161.961 16.0096H157.327L157.303 15.9812V12.8798C157.303 12.8386 157.271 12.8038 157.228 12.8038H152.961C152.917 12.8038 152.879 12.8386 152.879 12.8798V29.2114C152.879 32.4826 154.921 34.8567 157.731 34.8567H160.788C160.832 34.8567 160.866 34.8196 160.866 34.7803V32.2323C160.866 32.1907 160.832 32.1514 160.788 32.1514H158.911C158.43 32.1441 157.303 32.1198 157.298 29.7095V18.7149L157.325 18.6902C158.744 18.6975 161.961 18.6902 161.961 18.6902L162.036 18.6202V16.086C162.036 16.043 162.001 16.0096 161.961 16.0096Z" fill="white"/>
<path d="M191.765 16.0096H187.157L187.126 15.9812V12.8798L187.055 12.8038H182.779C182.737 12.8038 182.7 12.8386 182.7 12.8798V29.2114C182.7 32.4826 184.738 34.8567 187.546 34.8567H190.602C190.648 34.8567 190.678 34.8196 190.678 34.7803V32.2323C190.678 32.1907 190.648 32.1514 190.602 32.1514H188.726C188.244 32.1441 187.126 32.1198 187.126 29.7095V18.7149L187.151 18.6902C188.56 18.6975 191.765 18.6902 191.765 18.6902L191.841 18.6202V16.086C191.841 16.043 191.802 16.0096 191.765 16.0096Z" fill="white"/>
<path d="M198.821 16.0096H194.554C194.514 16.0096 194.476 16.043 194.476 16.086V34.7803L194.554 34.8567H198.821C198.868 34.8567 198.9 34.8196 198.9 34.7803V16.086C198.9 16.043 198.868 16.0096 198.821 16.0096Z" fill="white"/>
<path d="M198.821 10.0948H194.554L194.476 10.1689V13.7429C194.476 13.7863 194.514 13.8184 194.554 13.8184H198.821C198.868 13.8184 198.9 13.7863 198.9 13.7429V10.1689C198.9 10.1291 198.868 10.0948 198.821 10.0948Z" fill="white"/>
<path d="M228.347 16.0096H220.731C220.691 16.0096 220.656 16.043 220.656 16.086L220.654 34.7803L220.725 34.8567H225L225.072 34.7803L225.066 18.7309L225.096 18.6998L228.344 18.6975C229.222 18.6975 230.185 18.8389 230.802 19.8535C231.365 20.7702 231.621 22.3818 231.621 24.911C231.624 25.0203 231.618 34.7803 231.618 34.7803C231.618 34.8196 231.651 34.8567 231.694 34.8567H235.95C235.996 34.8567 236.03 34.8196 236.03 34.7803V25.405C236.03 21.0113 235.152 16.0096 228.347 16.0096Z" fill="white"/>
<path d="M212.49 30.9135C211.818 32.0187 210.751 32.1664 209.784 32.1664C208.826 32.1664 207.756 32.0187 207.077 30.9135C206.465 29.919 206.182 28.1766 206.182 25.4292V25.4072C206.182 22.1649 206.581 20.3228 207.474 19.4454C208.009 18.9129 208.701 18.697 209.784 18.697C210.882 18.697 211.568 18.9129 212.102 19.4454C212.987 20.3228 213.388 22.1727 213.388 25.4292C213.388 28.1803 213.103 29.924 212.49 30.9135ZM209.784 16.0095C202.655 16.0095 201.744 21.035 201.744 25.4292C201.744 29.8284 202.655 34.8704 209.784 34.8704C216.913 34.8704 217.822 29.8284 217.822 25.4292C217.822 21.035 216.913 16.0095 209.784 16.0095Z" fill="white"/>
<path d="M115.819 16.0095L115.77 16.0837L122.102 34.6069C122.112 34.6485 122.112 34.7125 122.099 34.7533L118.534 43.9245C118.519 43.968 118.538 44 118.58 44H122.293C122.339 44 122.387 43.968 122.402 43.9245L133.517 16.0837C133.533 16.0393 133.513 16.0095 133.469 16.0095H129.419C129.375 16.0095 129.329 16.0429 129.315 16.0837L124.609 28.2557H124.556L120.402 16.0837C120.392 16.0393 120.345 16.0095 120.302 16.0095" fill="white"/>
</svg>
