<svg width="112" height="35" viewBox="0 0 112 35" fill="none" xmlns="http://www.w3.org/2000/svg">
<g clip-path="url(#clip0_8_61)">
<path d="M17.678 11.5277C17.678 8.33559 15.1208 5.76486 11.9939 5.76486H9.17509V17.2396H11.9939C15.1208 17.2396 17.678 14.6672 17.678 11.5277ZM30.5005 34.4033H20.1531L11.938 22.9541H9.17509V34.3787H0.0559692V0.0563812H13.1197C20.6508 0.0563812 26.798 5.19954 26.798 11.5277C26.798 15.3872 24.4414 18.8344 20.8548 20.9436L30.5005 34.4033Z" fill="white"/>
<path d="M40.7848 13.5874C38.3765 13.5874 36.3281 16.8748 36.3281 20.9443C36.3281 25.0137 38.3765 28.3053 40.7848 28.3053C43.2489 28.3053 45.294 25.0137 45.294 20.9443C45.294 16.8748 43.2489 13.5874 40.7848 13.5874ZM54.8211 20.9443C54.8211 28.7185 48.5258 34.9438 40.7848 34.9438C33.0463 34.9438 26.7975 28.7185 26.7975 20.9443C26.7975 13.176 33.0463 6.94722 40.7848 6.94722C48.5258 6.94722 54.8211 13.176 54.8211 20.9443Z" fill="white"/>
<path d="M76.2209 7.51655L65.7161 18.0647V7.4817H56.5986V34.3783H65.7161V23.468L76.683 34.3783H88.1588L74.2223 20.3804L85.7658 8.79172V24.7534C85.7658 30.0529 88.9392 34.9436 96.9308 34.9436C100.725 34.9436 104.206 32.7826 105.898 30.8274L109.998 34.3783H111.944V7.51655H102.827V21.511V24.9081C101.8 26.7078 100.369 27.8392 98.1582 27.8392C95.9151 27.8392 94.8857 26.5037 94.8857 22.2319V21.1047V7.51655H76.2209Z" fill="white"/>
</g>
<defs>
<clipPath id="clip0_8_61">
<rect width="112" height="35" fill="white"/>
</clipPath>
</defs>
</svg>
