<svg width="185" height="28" viewBox="0 0 185 28" fill="none" xmlns="http://www.w3.org/2000/svg">
<g clip-path="url(#clip0_8_71)">
<path d="M175.645 12.2979V16.1095H178.355V19.8912C178.364 20.2292 178.345 20.5936 178.287 20.8852C178.179 21.5906 177.501 22.7917 175.577 22.7917C173.664 22.7917 172.998 21.5906 172.882 20.8852C172.834 20.5936 172.813 20.2292 172.813 19.8912V7.94669C172.813 7.52419 172.842 7.06175 172.933 6.71173C173.064 6.07512 173.635 4.81969 175.562 4.81969C177.585 4.81969 178.09 6.14325 178.206 6.71173C178.282 7.08826 178.287 7.71983 178.287 7.71983V9.17024H184.947V8.31281C184.947 8.31281 184.977 7.41814 184.896 6.5832C184.396 1.68062 180.308 0.129534 175.621 0.129534C170.925 0.129534 166.92 1.69505 166.337 6.5832C166.284 7.0302 166.204 7.83427 166.204 8.31281V19.3006C166.204 19.7791 166.22 20.1496 166.309 21.0242C166.744 25.7918 170.925 27.4819 175.602 27.4819C180.308 27.4819 184.461 25.7918 184.903 21.0242C184.981 20.1496 184.99 19.7791 185 19.3006V12.2979H175.645ZM129.719 0.832588H123.03V20.1667C123.041 20.5037 123.03 20.8822 122.972 21.1597C122.832 21.8088 122.275 23.0578 120.43 23.0578C118.608 23.0578 118.037 21.8088 117.908 21.1597C117.841 20.8822 117.833 20.5037 117.841 20.1667V0.832588H111.155V19.5667C111.146 20.0496 111.184 21.0362 111.213 21.2946C111.675 26.1764 115.568 27.7614 120.43 27.7614C125.301 27.7614 129.192 26.1764 129.662 21.2946C129.699 21.0362 129.748 20.0496 129.719 19.5667V0.832588ZM68.2618 0.832588L64.9252 21.2618L61.5907 0.832588H50.8013L50.2291 26.9674H56.839L57.018 2.77362L61.5659 26.9674H68.2723L72.8243 2.77362L73.004 26.9674H79.6306L79.039 0.832588H68.2618ZM28.3144 0.832588L23.4154 26.9674H30.5595L34.2513 2.77362L37.8544 26.9674H44.949L40.0703 0.832588H28.3144ZM153.095 21.8742L146.867 0.832588H137.052V26.6949H143.545L143.168 4.9801L149.857 26.6949H159.269V0.832588H152.734L153.095 21.8742ZM93.041 7.63426C92.9235 7.11813 92.9575 6.56978 93.0182 6.28319C93.2074 5.44657 93.7762 4.53411 95.4151 4.53411C96.9427 4.53411 97.8382 5.47509 97.8382 6.88724V8.4853H104.358V6.66374C104.358 1.0326 99.2496 0.147991 95.5506 0.147991C90.892 0.147991 87.0875 1.66551 86.3927 5.90263C86.2089 7.05571 86.1634 8.07924 86.4558 9.38535C87.5887 14.6685 96.8961 16.2011 98.2471 19.5422C98.4855 20.1751 98.4172 20.9822 98.2956 21.4577C98.0932 22.3272 97.5013 23.2018 95.7466 23.2018C94.1009 23.2018 93.1103 22.2668 93.1103 20.8577L93.1082 18.3495H86.0901V20.3433C86.0901 26.1204 90.6692 27.8634 95.6012 27.8634C100.325 27.8634 104.226 26.2684 104.852 21.9447C105.15 19.7107 104.925 18.2556 104.805 17.7076C103.712 12.2888 93.7918 10.6589 93.041 7.63426ZM7.0297 7.57016C6.90167 7.04329 6.93155 6.48722 7.00287 6.19728C7.18353 5.36469 7.75575 4.43612 9.42352 4.43612C10.9704 4.43612 11.8812 5.38616 11.8812 6.80972V8.42725H18.4779V6.59126C18.4779 0.906082 13.2909 -3.8147e-06 9.55156 -3.8147e-06C4.85388 -3.8147e-06 1.0154 1.54101 0.313109 5.80867C0.120896 6.9802 0.0879444 8.01079 0.365737 9.33132C1.51086 14.6745 10.9103 16.2196 12.2779 19.6006C12.5339 20.2292 12.4565 21.0362 12.3295 21.5302C12.1125 22.4088 11.5158 23.2957 9.74649 23.2957C8.09434 23.2957 7.10611 22.3447 7.10611 20.9161L7.09694 18.4012H0V20.3996C0 26.2429 4.64401 28 9.61438 28C14.3929 28 18.3169 26.3909 18.9571 22.0172C19.2753 19.7627 19.0366 18.2955 18.9293 17.7391C17.813 12.2539 7.78259 10.6294 7.0297 7.57016Z" fill="white"/>
</g>
<defs>
<clipPath id="clip0_8_71">
<rect width="185" height="28" fill="white"/>
</clipPath>
</defs>
</svg>
