<svg width="101" height="80" viewBox="0 0 101 80" fill="none" xmlns="http://www.w3.org/2000/svg">
<g clip-path="url(#clip0_8_77)">
<path d="M25.3066 79.4366H20.6642L12.6816 68.4507L4.64238 79.4366H0L10.3038 65.2958L0.849215 52.2817H5.49159L12.6816 62.1409L19.8716 52.2817H24.514L15.0028 65.2958L25.3066 79.4366ZM49.4243 71.7183C49.4243 74.0845 48.6317 76 47.0465 77.3521C45.4613 78.7042 43.1968 79.4366 40.2528 79.4366H27.5146V67.3239H21.4002L23.9479 63.831H27.5146V52.2817H39.7433C42.5174 52.2817 44.6121 52.9577 46.0841 54.2535C47.5561 55.5493 48.292 57.2958 48.292 59.3803C48.292 61.9718 47.1031 64 44.7253 65.2958C46.2539 65.8592 47.3862 66.7606 48.1788 67.831C49.028 68.9014 49.4243 70.2535 49.4243 71.7183ZM31.6474 63.8873H39.4602C41.0454 63.8873 42.2343 63.5493 43.0269 62.8169C43.8195 62.1408 44.2158 61.0704 44.2158 59.662C44.2158 58.4789 43.8195 57.5211 42.9703 56.8451C42.1777 56.169 40.9888 55.831 39.4602 55.831H31.6474V63.8873ZM45.2349 71.6056C45.2349 70.1972 44.782 69.0704 43.9327 68.3944C43.0835 67.662 41.7814 67.3239 40.083 67.3239H31.6474V75.831H40.0263C41.6682 75.831 42.9703 75.4366 43.8761 74.7606C44.782 74.0282 45.2349 72.9577 45.2349 71.6056ZM77.505 65.8592C77.505 67.9437 77.222 69.9155 76.5992 71.6056C75.9765 73.2958 75.0706 74.8169 73.8817 76.1127C72.6362 77.4085 71.2209 78.4225 69.6357 79.0423C68.0505 79.7183 66.2388 80 64.2007 80C62.2192 80 60.3509 79.662 58.7657 79.0423C57.1805 78.3662 55.7651 77.4085 54.5196 76.1127C53.2741 74.8169 52.3683 73.2958 51.7455 71.6056C51.1228 69.9155 50.8397 67.9437 50.8397 65.8592C50.8397 63.7747 51.1228 61.8028 51.7455 60.1127C52.3683 58.4225 53.2741 56.8451 54.5196 55.5493C55.7085 54.2535 57.1239 53.2958 58.7657 52.6197C60.3509 52 62.2192 51.662 64.2007 51.662C66.1822 51.662 67.9938 52 69.6357 52.6197C71.2209 53.2394 72.6928 54.2535 73.8817 55.5493C75.0706 56.8451 76.0331 58.4225 76.5992 60.1127C77.1654 61.8028 77.505 63.7183 77.505 65.8592ZM55.1424 65.8592C55.1424 69.0704 55.9916 71.6056 57.6334 73.4648C59.2752 75.3239 61.4266 76.2817 64.2007 76.2817C66.9182 76.2817 69.1261 75.3239 70.7679 73.4648C72.4098 71.6056 73.2024 69.0704 73.2024 65.8592C73.2024 62.6479 72.4098 60.0563 70.7679 58.1972C69.1261 56.338 66.9182 55.3803 64.2007 55.3803C61.4832 55.3803 59.2752 56.338 57.6334 58.1972C55.9916 60.1127 55.1424 62.6479 55.1424 65.8592ZM90.6396 65.2958L100.151 52.2817H95.5084L88.3184 62.1409L81.1284 52.2817H76.486L85.9972 65.2958L75.6934 79.4366H80.3358L88.3184 68.4507L96.3576 79.4366H101L90.6396 65.2958ZM50.5 18.1408C50.5 18.1408 50.5566 18.1408 50.5 18.1408C57.3503 23.3239 68.9563 36.0563 65.4462 39.662C61.4266 43.1549 56.218 45.2394 50.5 45.2394C44.7819 45.2394 39.5168 43.1549 35.5538 39.662C31.9871 36.0563 43.6497 23.3239 50.4434 18.1972C50.4434 18.1408 50.5 18.1408 50.5 18.1408ZM62.3324 3.32394C58.8789 1.23944 55.0858 0 50.5 0C45.9142 0 42.1211 1.23944 38.6676 3.32394C38.611 3.32394 38.611 3.38028 38.611 3.43662C38.611 3.49296 38.6676 3.49296 38.7242 3.49296C43.1401 2.53521 49.8206 6.30986 50.4434 6.70423H50.5566C51.1794 6.30986 57.8599 2.53521 62.2758 3.49296C62.3324 3.49296 62.389 3.49296 62.389 3.43662C62.389 3.38028 62.389 3.32394 62.3324 3.32394ZM34.5914 6.47887C34.5348 6.47887 34.5348 6.53521 34.4781 6.53521C30.3453 10.6479 27.7976 16.338 27.7976 22.5915C27.7976 27.7183 29.5527 32.507 32.44 36.2817C32.44 36.338 32.4966 36.338 32.5533 36.338C32.6099 36.338 32.6099 36.2817 32.5533 36.2254C30.7982 30.8732 39.6867 17.9718 44.2724 12.5634L44.329 12.507C44.329 12.4507 44.329 12.4507 44.2724 12.4507C37.3089 5.57747 34.9877 6.30986 34.5914 6.47887ZM56.7276 12.3944L56.671 12.4507C56.671 12.4507 56.671 12.507 56.7276 12.507C61.3133 17.9155 70.1452 30.8169 68.4468 36.169V36.2817C68.5034 36.2817 68.56 36.2817 68.56 36.2254C71.4473 32.4507 73.2024 27.662 73.2024 22.5352C73.2024 16.2817 70.6547 10.5915 66.4652 6.47887C66.4086 6.42254 66.4086 6.42254 66.352 6.42254C66.0123 6.30986 63.6911 5.57746 56.7276 12.3944Z" fill="white"/>
</g>
<defs>
<clipPath id="clip0_8_77">
<rect width="101" height="80" fill="white"/>
</clipPath>
</defs>
</svg>
