<svg width="103" height="103" viewBox="0 0 103 103" fill="none" xmlns="http://www.w3.org/2000/svg">
<path d="M34.3333 72.9585L51.5 90.1252L68.6666 72.9585" stroke="white" stroke-width="3" stroke-linecap="round" stroke-linejoin="round"/>
<path d="M51.5 51.5V90.125" stroke="white" stroke-width="3" stroke-linecap="round" stroke-linejoin="round"/>
<path d="M89.61 77.6365C93.3411 75.0127 96.1392 71.2683 97.598 66.9465C99.0568 62.6248 99.1006 57.9507 97.7229 53.6024C96.3453 49.2541 93.6178 45.4579 89.9365 42.7648C86.2551 40.0716 81.8113 38.6216 77.25 38.6252H71.8425C70.5517 33.5948 68.1366 28.9228 64.7789 24.9609C61.4212 20.999 57.2085 17.8504 52.4579 15.7521C47.7073 13.6539 42.5426 12.6607 37.3526 12.8474C32.1626 13.034 27.0826 14.3956 22.495 16.8297C17.9074 19.2637 13.9317 22.7068 10.8673 26.8996C7.80288 31.0925 5.72958 35.9259 4.80348 41.036C3.87738 46.1461 4.12261 51.3998 5.5207 56.4014C6.91879 61.403 9.43332 66.0223 12.875 69.9115" stroke="white" stroke-width="3" stroke-linecap="round" stroke-linejoin="round"/>
</svg>
